<?xml version="1.0" standalone="no"?>
<!DOCTYPE svg PUBLIC "-//W3C//DTD SVG 20010904//EN"
 "http://www.w3.org/TR/2001/REC-SVG-20010904/DTD/svg10.dtd">
<svg version="1.0" xmlns="http://www.w3.org/2000/svg"
 width="500.000000pt" height="500.000000pt" viewBox="0 0 500.000000 500.000000"
 preserveAspectRatio="xMidYMid meet">
<metadata>
Created by potrace 1.14, written by Peter Selinger 2001-2017
</metadata>
<g transform="translate(0.000000,500.000000) scale(0.100000,-0.100000)"
fill="#000000" stroke="none">
<path d="M3122 4768 c-6 -6 -12 -22 -12 -35 0 -13 -4 -23 -9 -23 -5 0 -151
-231 -326 -514 l-317 -513 -78 23 c-112 32 -236 56 -268 51 -21 -3 -18 -4 13
-6 35 -2 37 -3 18 -11 -24 -10 -31 -30 -11 -30 6 0 9 -2 7 -5 -3 -2 -34 7 -69
20 -43 16 -57 24 -40 25 14 0 32 5 40 11 10 7 -41 9 -170 6 -195 -4 -267 -16
-445 -73 -118 -38 -307 -134 -415 -211 -124 -89 -292 -259 -366 -370 -132
-200 -217 -408 -252 -619 -10 -59 -21 -103 -25 -97 -18 28 -48 189 -53 283 -8
135 5 204 58 309 57 113 154 212 258 265 50 25 100 61 151 110 42 40 105 92
140 115 40 26 55 40 39 37 -248 -53 -376 -108 -523 -225 -126 -101 -223 -251
-269 -417 -17 -63 -21 -108 -22 -224 0 -127 3 -158 27 -253 42 -163 96 -290
187 -442 27 -44 51 -92 55 -107 4 -16 11 -26 15 -23 5 3 6 -3 3 -13 -11 -45
109 -306 210 -457 82 -121 275 -312 396 -393 328 -219 726 -310 1096 -251 99
16 205 42 205 51 0 11 -17 10 -38 -2 -33 -19 -162 -39 -192 -30 -44 13 -122
71 -115 87 2 8 0 11 -5 8 -6 -3 -13 1 -16 9 -3 9 -13 16 -20 16 -8 0 -25 9
-37 20 -21 20 -22 20 -35 3 -13 -16 -13 -16 -7 6 5 18 4 22 -5 16 -8 -5 -11
-4 -6 3 3 6 2 13 -4 17 -6 4 -7 11 -4 17 4 7 2 8 -4 4 -6 -3 -26 3 -44 14 -50
30 -67 25 -33 -10 16 -16 24 -30 19 -30 -5 0 -24 16 -42 36 -25 27 -60 46
-135 75 -315 122 -569 286 -821 529 -297 286 -497 613 -562 917 -32 152 -13
415 36 491 10 15 11 15 5 -3 -37 -111 -46 -305 -20 -431 87 -420 434 -874 916
-1200 123 -83 384 -218 406 -209 8 2 12 1 9 -4 -6 -10 24 -25 32 -16 3 2 -1
11 -7 19 -9 11 -9 16 0 22 7 4 9 3 6 -3 -8 -13 40 -59 74 -71 20 -8 26 -7 26
3 0 8 -4 12 -9 9 -4 -3 -8 0 -8 6 0 6 -4 9 -9 6 -5 -3 -8 2 -7 11 1 20 -59 53
-86 48 -10 -2 -17 0 -15 4 1 5 -46 33 -106 64 -102 54 -275 158 -327 197 l-24
18 55 91 54 91 85 2 85 2 -77 3 c-43 2 -78 6 -78 8 0 6 175 292 226 372 50 77
51 80 8 87 -20 4 -40 4 -44 -1 -4 -4 -51 -80 -105 -168 -287 -467 -267 -442
-280 -342 -5 37 -4 52 6 58 11 7 10 9 -3 9 -9 0 -19 10 -21 23 -4 21 -4 21 -6
1 -1 -20 -4 -21 -43 -13 -24 5 -76 21 -116 35 -64 23 -80 34 -143 103 l-71 76
5 115 c3 73 1 98 -4 70 -4 -25 -8 -69 -8 -97 -1 -29 -5 -53 -10 -53 -10 0 -87
111 -146 209 l-38 64 12 61 c7 34 14 63 16 65 2 1 32 -27 66 -63 34 -37 75
-74 90 -83 16 -10 30 -26 30 -38 1 -16 2 -17 6 -3 4 17 7 17 41 -1 20 -10 48
-21 62 -25 14 -4 -3 7 -38 23 -54 26 -62 33 -58 53 3 13 17 72 31 132 14 60
24 111 21 113 -4 5 -46 -158 -53 -207 -3 -19 -8 -39 -12 -43 -11 -12 -103 64
-145 119 -26 33 -35 53 -30 68 11 40 85 221 93 229 4 4 28 -13 54 -37 26 -24
61 -49 77 -56 25 -10 29 -17 25 -39 -5 -23 -4 -24 4 -4 9 20 12 20 48 8 29
-10 39 -19 41 -39 3 -24 16 -31 49 -27 7 1 13 -3 13 -9 0 -24 -36 -63 -84 -92
-28 -16 -42 -27 -31 -23 11 4 29 10 40 12 26 7 102 80 121 116 8 15 21 27 29
27 18 0 24 -24 28 -110 3 -62 3 -61 5 17 1 45 5 84 10 86 4 3 39 8 79 12 69 7
73 6 97 -20 19 -20 24 -22 21 -8 -2 10 -4 22 -4 26 -1 5 -6 5 -13 1 -7 -5 -8
-3 -2 7 4 8 10 59 12 114 5 141 6 154 14 149 3 -2 11 18 18 46 6 27 15 49 18
49 19 -3 23 3 12 16 -14 16 -35 21 -25 5 3 -5 -3 -18 -14 -29 -11 -11 -23 -33
-27 -48 -3 -16 -10 -39 -15 -53 -7 -20 -8 -19 -3 10 3 19 8 46 11 59 6 22 4
24 -25 18 -21 -4 -32 -2 -36 8 -3 9 -18 15 -35 15 -16 0 -32 6 -34 13 -4 9 -6
9 -6 -1 -1 -10 -7 -9 -30 2 -24 13 -31 13 -47 1 -11 -7 -32 -11 -49 -9 -22 3
-25 2 -11 -4 17 -8 17 -10 -10 -29 -27 -20 -28 -21 -14 -62 15 -46 8 -61 -19
-44 -14 9 -21 9 -30 0 -19 -19 -12 -46 14 -53 36 -9 33 -43 -4 -50 -29 -6 -51
-38 -51 -74 0 -23 -4 -24 -30 -10 -18 10 -18 12 6 82 13 39 22 73 20 76 -2 2
-15 -28 -27 -67 -13 -39 -27 -71 -31 -71 -36 0 -156 109 -143 130 4 6 23 10
42 8 33 -2 36 0 56 42 24 50 50 59 55 20 2 -14 5 -32 8 -40 5 -13 7 -12 15 3
6 9 14 17 19 17 6 0 10 -8 11 -17 0 -10 11 6 25 36 27 59 32 81 8 39 -22 -41
-50 -21 -49 35 0 23 -3 54 -8 69 l-7 27 45 -27 c38 -23 44 -31 40 -52 -5 -23
-4 -24 7 -5 6 11 16 23 22 27 6 4 7 8 3 8 -5 0 19 53 52 118 34 64 54 108 46
97 -8 -10 -38 -63 -66 -117 l-50 -98 -27 14 c-15 8 -38 26 -51 40 l-24 25 40
53 c59 77 163 188 176 188 7 0 20 -7 30 -14 18 -14 18 -16 2 -43 l-17 -28 22
28 c12 15 31 27 43 28 20 0 20 1 3 8 -16 6 -9 19 58 109 75 99 112 132 81 72
-25 -48 -16 -49 10 0 l25 45 -1 -118 c-1 -65 2 -121 5 -124 3 -4 6 1 6 10 0 9
8 21 18 27 16 11 16 11 -1 6 -15 -5 -17 4 -17 102 l0 107 21 -25 c20 -25 20
-25 9 -1 -12 23 -2 40 23 41 5 0 5 5 2 10 -4 6 8 10 27 11 21 1 26 3 14 6 -18
5 -18 6 5 19 l24 14 -24 -3 c-13 -1 -26 3 -28 9 -4 13 141 134 161 134 8 0 24
-9 37 -21 13 -11 18 -18 12 -14 -13 6 -152 -61 -189 -91 -11 -8 15 3 57 25 85
46 89 47 89 26 0 -8 -5 -15 -11 -15 -6 0 -17 -6 -25 -14 -12 -13 -11 -17 8
-30 21 -15 21 -16 3 -16 -16 0 -13 -4 10 -16 16 -8 38 -24 48 -35 10 -11 22
-17 28 -14 5 4 9 -1 9 -9 0 -9 -4 -16 -10 -16 -5 0 -10 4 -10 10 0 5 -6 7 -13
4 -8 -3 -20 2 -27 11 -14 16 -46 20 -54 6 -3 -4 -16 -7 -28 -6 -13 1 -15 0 -5
-2 18 -5 22 -29 8 -52 -7 -11 -13 -10 -35 4 -14 10 -26 15 -26 12 0 -3 16 -15
36 -28 20 -12 32 -24 27 -28 -6 -3 -12 -17 -16 -30 -4 -17 -3 -21 5 -13 6 6
26 8 44 5 19 -3 34 -2 34 3 -1 12 -27 46 -33 42 -3 -2 -9 0 -13 5 -14 14 18 7
47 -10 31 -18 50 -49 24 -39 -21 8 -19 -1 3 -13 12 -7 25 -3 46 14 l29 23 -32
31 c-17 17 -31 35 -31 40 0 5 25 3 58 -5 70 -16 75 -17 67 -4 -3 6 -1 10 4 10
6 0 11 11 11 24 0 31 16 36 105 36 56 0 74 4 79 15 3 8 12 15 21 15 8 0 15 -7
15 -15 0 -8 9 -15 20 -15 13 0 20 7 20 20 0 23 13 26 32 7 25 -25 73 -34 161
-29 48 2 87 1 87 -3 0 -10 -82 -145 -89 -146 -3 0 -23 -2 -43 -3 -33 -1 -68
-16 -39 -16 7 0 9 -5 5 -12 -6 -10 -4 -10 7 0 7 6 17 12 22 12 4 0 5 -6 2 -12
-4 -7 0 -5 8 5 10 12 17 14 22 8 3 -6 3 -11 -2 -12 -4 0 1 -4 11 -8 18 -7 16
-9 -12 -22 -18 -8 -32 -17 -32 -21 0 -5 -32 -60 -71 -124 l-71 -115 23 -25
c22 -24 23 -24 42 -6 10 10 36 48 57 83 38 62 39 65 21 80 -18 14 -18 17 -2
36 9 11 28 23 43 27 19 4 41 28 79 86 28 44 55 80 60 80 4 0 10 13 14 29 3 15
15 38 25 49 11 12 20 24 20 27 0 4 23 44 52 91 46 75 54 84 82 85 24 1 26 3 9
6 -26 5 -28 12 -10 37 12 16 14 15 37 -9 21 -22 22 -28 10 -35 -12 -8 -10 -10
8 -10 18 0 28 -11 47 -52 26 -58 34 -59 10 -1 -8 20 -14 38 -12 40 2 2 18 -2
36 -8 18 -6 34 -9 37 -6 3 3 -16 10 -43 17 -38 10 -55 22 -80 55 -21 29 -28
46 -22 56 12 19 91 -22 177 -92 67 -54 73 -68 21 -50 -18 6 -34 9 -36 7 -2 -2
15 -11 39 -19 24 -8 52 -18 62 -23 15 -6 17 -4 11 6 -5 9 -4 11 4 6 6 -4 9
-11 6 -16 -3 -5 12 -34 34 -65 42 -59 85 -157 96 -219 l7 -37 -91 45 c-50 25
-94 46 -98 46 -5 -1 37 -24 92 -53 l100 -52 6 -105 5 -105 2 98 c1 53 5 97 8
97 22 0 176 -122 261 -206 l101 -101 7 -68 c4 -37 5 -102 1 -144 -6 -73 -40
-231 -56 -259 -5 -10 -22 6 -59 51 -28 36 -111 123 -184 194 l-133 128 23 75
c12 41 21 89 21 105 -1 26 -1 27 -5 5 -8 -45 -45 -180 -50 -180 -2 0 -32 21
-66 47 -34 26 -56 40 -50 32 12 -15 8 -29 -8 -29 -8 0 -18 45 -26 115 -5 45
-4 48 11 36 26 -22 38 -1 25 39 -23 70 -29 80 -45 80 -11 0 -15 -6 -11 -20 3
-10 -2 -25 -10 -32 -12 -10 -21 -9 -45 5 -41 23 -46 22 -50 -15 l-3 -33 -18
38 c-17 36 -15 96 3 67 11 -17 21 28 11 49 -19 39 -29 81 -20 87 13 8 39 -15
39 -35 0 -12 2 -13 9 -3 6 10 15 6 35 -18 l26 -32 0 27 c0 18 6 29 20 32 11 3
20 14 20 24 0 15 -7 19 -39 19 -28 0 -41 -5 -45 -17 -6 -15 -8 -15 -16 -3 -6
8 -10 11 -10 6 0 -5 -10 0 -23 12 -28 26 -87 30 -142 9 -22 -8 -69 -17 -104
-19 -38 -2 -66 -8 -68 -15 -2 -6 17 -31 43 -55 131 -119 164 -152 170 -172 4
-11 10 -23 14 -26 7 -4 56 -109 61 -128 1 -4 8 -16 15 -27 8 -11 14 -31 14
-45 0 -14 6 -32 13 -39 7 -9 8 -12 0 -7 -13 7 -12 -11 4 -38 6 -10 8 -27 6
-36 -3 -10 0 -21 6 -24 6 -4 11 -13 11 -19 0 -7 -4 -6 -10 3 -7 11 -10 -1 -10
-40 0 -30 -4 -70 -9 -88 -7 -24 -7 -31 2 -25 9 5 9 3 1 -8 -6 -8 -21 -43 -34
-79 -12 -36 -26 -71 -32 -77 -6 -7 -8 -13 -4 -13 3 0 -5 -18 -19 -40 -14 -22
-22 -40 -18 -40 4 0 -2 -6 -12 -14 -11 -8 -23 -12 -27 -10 -4 3 -5 -1 -2 -9 6
-16 -133 -150 -146 -142 -5 3 -12 -1 -17 -8 -15 -26 -109 -67 -223 -98 -51
-13 -269 -13 -306 1 -15 6 -24 6 -24 0 0 -6 0 -13 -1 -17 0 -5 9 -10 20 -13
19 -5 19 -6 -4 -17 -14 -6 -22 -7 -19 -2 3 5 -2 12 -11 15 -12 5 -13 9 -3 21
10 12 9 18 -6 28 -10 8 -24 11 -31 8 -15 -5 -9 -33 7 -33 6 0 7 -7 4 -17 -8
-21 36 -89 64 -98 11 -4 17 -11 14 -17 -5 -7 -1 -9 9 -5 11 4 20 -1 27 -13 18
-33 96 -73 133 -67 25 3 44 -4 92 -36 33 -22 62 -44 63 -49 2 -4 15 -8 28 -8
29 0 64 -16 64 -30 0 -5 -10 -11 -22 -13 -13 -2 4 -5 36 -6 39 -1 66 -7 77
-17 10 -9 36 -18 59 -21 41 -6 80 -39 80 -69 0 -39 -505 -234 -605 -234 -19 0
-30 17 -77 122 -31 68 -68 156 -83 196 -16 39 -30 70 -32 68 -5 -5 91 -243
128 -318 33 -65 35 -78 15 -78 -8 0 -18 -4 -21 -10 -4 -6 6 -7 25 -4 23 5 30
3 30 -10 0 -9 4 -16 9 -16 5 0 7 8 5 17 -4 15 12 22 102 46 133 34 268 84 403
148 57 27 107 49 111 49 4 0 56 -85 116 -190 60 -104 112 -190 116 -190 4 0
-14 37 -41 82 -133 228 -171 296 -171 305 0 21 115 81 170 88 66 9 185 57 220
89 14 13 48 36 75 52 28 15 65 39 83 52 18 14 34 23 36 21 12 -14 49 -99 71
-163 16 -49 25 -97 25 -138 l0 -64 -89 -95 c-49 -52 -121 -119 -160 -149 -39
-30 -66 -57 -60 -59 6 -2 14 1 18 5 3 5 43 40 88 78 367 307 578 816 533 1291
-27 299 -128 567 -295 790 -41 55 -73 101 -71 102 6 7 488 -206 542 -239 31
-18 109 -78 173 -132 210 -179 294 -233 446 -287 143 -50 268 -120 360 -200
l35 -31 -25 44 c-13 24 -36 75 -50 113 -49 130 -95 203 -169 274 -154 145
-194 189 -231 256 -31 56 -87 143 -147 229 -3 5 -25 0 -52 -12 -25 -12 -51
-22 -56 -22 -6 0 -9 -4 -6 -8 2 -4 -32 -4 -77 -1 -45 4 -86 5 -91 2 -5 -4 -6
-1 -3 5 4 5 -12 21 -36 35 -24 14 -57 45 -73 69 -16 24 -38 50 -48 59 -14 11
-16 18 -7 23 7 4 10 2 9 -5 -2 -6 3 -14 10 -16 11 -4 12 -1 3 15 -6 11 -11 30
-11 41 0 15 -4 19 -17 14 -12 -5 -14 -3 -8 8 6 9 1 8 -15 -4 -44 -32 -88 -47
-135 -47 -52 0 -89 16 -125 55 -35 37 -36 134 -2 183 27 37 47 42 39 10 -8
-30 8 -97 27 -116 23 -23 72 -19 102 9 56 52 97 184 63 204 -6 4 -37 -5 -69
-19 -63 -29 -99 -34 -141 -23 -25 6 -27 4 -33 -31 -13 -83 -102 -161 -184
-162 -43 0 -100 24 -135 58 -67 64 -91 160 -62 258 17 59 53 134 65 134 3 0 6
-51 6 -112 -1 -130 13 -169 75 -202 62 -34 113 -3 126 76 4 29 0 41 -27 72
-30 33 -31 39 -20 65 11 28 14 29 77 28 68 -2 93 13 93 55 0 28 -58 58 -112
58 l-46 0 -11 50 c-6 28 -11 53 -11 55 0 12 75 15 123 5 69 -14 134 -59 154
-108 31 -73 -5 -159 -81 -193 l-40 -18 27 -10 c41 -16 47 -14 101 24 27 19 64
39 83 46 82 27 152 -24 177 -128 7 -34 13 -63 12 -65 0 -2 6 3 14 12 9 8 22
16 30 18 7 2 25 10 39 18 14 8 18 13 8 10 -10 -3 -15 -2 -12 4 3 5 19 7 35 4
16 -4 44 -1 62 5 22 8 34 8 36 1 2 -5 12 -10 22 -10 9 0 34 -7 54 -15 20 -8
36 -13 36 -10 0 14 79 -79 96 -112 10 -21 24 -41 29 -45 6 -5 6 -8 -2 -8 -8 0
-8 -9 -1 -33 7 -24 6 -47 -7 -92 -9 -33 -17 -68 -18 -77 -1 -9 -4 -16 -7 -15
-3 1 -7 -2 -10 -8 -2 -5 45 -25 105 -44 122 -37 221 -44 406 -27 113 10 159 2
261 -49 38 -18 68 -31 68 -27 0 3 -18 29 -40 59 -56 73 -151 150 -268 214
-244 135 -380 245 -484 394 -94 135 -227 255 -350 315 -126 62 -209 123 -358
265 -58 55 -142 125 -187 155 -45 30 -82 58 -83 62 0 4 12 13 27 20 38 19 49
41 37 75 -7 22 -16 29 -44 31 -19 2 -41 -3 -48 -10z m393 -748 c40 -42 85 -55
142 -41 25 7 47 11 48 9 10 -12 46 -91 42 -94 -2 -3 -27 -7 -54 -11 -120 -14
-219 63 -239 186 -4 22 -3 48 1 58 5 14 10 6 20 -30 7 -26 25 -61 40 -77z
m137 56 c3 -26 -1 -30 -31 -38 -39 -11 -46 -5 -54 39 -6 29 -4 32 31 40 41 10
49 5 54 -41z m181 -313 c-7 -2 -19 -2 -25 0 -7 3 -2 5 12 5 14 0 19 -2 13 -5z
m-1788 -39 c61 -19 69 -31 28 -37 -16 -2 -8 -3 16 -1 37 3 50 -1 91 -31 48
-35 69 -61 102 -125 16 -31 17 -32 12 -7 -6 26 -5 27 35 27 23 0 41 -2 41 -5
0 -3 -12 -24 -27 -47 -24 -38 -27 -41 -35 -23 -6 14 -7 10 -3 -14 l5 -34 -45
6 c-65 9 -146 38 -152 53 -3 8 -24 19 -47 25 -22 6 -49 20 -59 30 -10 10 -24
19 -32 19 -8 0 -33 16 -55 37 -31 27 -38 38 -28 45 9 6 7 8 -7 7 -11 -2 -37 5
-59 14 -21 9 -44 17 -51 17 -7 0 -18 7 -26 16 -10 13 -10 17 1 24 8 5 17 7 19
4 3 -3 -1 -9 -9 -14 -25 -16 -1 -11 33 7 69 36 152 38 252 7z m189 -46 c-4 -7
7 -8 35 -3 81 14 96 13 129 -7 17 -11 32 -22 32 -24 0 -3 -10 -23 -22 -44 -22
-39 -24 -40 -78 -40 -51 0 -57 2 -73 30 -10 16 -36 45 -59 62 l-40 33 33 6
c39 6 52 2 43 -13z m-544 4 c0 -12 -113 -77 -135 -77 -31 -1 -75 -16 -75 -26
0 -5 -10 -9 -22 -9 -20 0 -16 6 27 50 43 42 58 51 105 59 73 12 100 13 100 3z
m131 -26 c30 -13 32 -15 14 -22 -90 -32 -176 -67 -173 -69 2 -2 44 11 93 30
107 41 112 41 142 13 28 -26 30 -42 4 -35 -11 3 -28 -1 -39 -9 -12 -8 -37 -11
-72 -8 -40 3 -58 0 -71 -12 -10 -9 -23 -13 -29 -9 -6 3 -26 1 -46 -5 -44 -15
-55 -7 -17 14 15 8 24 15 18 15 -5 0 -21 -6 -35 -13 -21 -12 -29 -12 -53 1
-16 8 -27 16 -25 18 1 2 44 29 93 60 97 61 117 64 196 31z m-349 -39 c-39 -39
-63 -55 -97 -63 -50 -11 -51 -9 -31 41 13 29 23 37 78 54 103 33 110 28 50
-32z m1083 33 c3 -6 -1 -7 -9 -4 -18 7 -21 14 -7 14 6 0 13 -4 16 -10z m-1231
-84 c-4 -19 -19 -32 -51 -46 -25 -11 -47 -20 -49 -20 -1 0 21 22 49 49 29 27
53 48 55 46 2 -1 0 -14 -4 -29z m-79 -16 c-25 -26 -41 -36 -46 -28 -11 18 -1
33 34 51 51 25 54 20 12 -23z m245 1 c0 -5 -10 -15 -23 -24 -13 -8 -49 -38
-80 -67 -32 -29 -60 -51 -62 -49 -10 10 95 138 117 142 40 8 48 7 48 -2z m-90
-5 c0 -3 -22 -37 -49 -76 l-50 -72 -4 34 -4 33 -1 -37 c-1 -21 -6 -38 -11 -38
-4 0 -19 20 -32 44 -13 25 -25 43 -27 41 -3 -2 7 -24 22 -49 14 -24 26 -47 26
-49 0 -3 -24 4 -52 14 -29 11 -59 22 -67 25 -11 3 -11 7 -1 19 15 18 131 85
147 85 6 0 9 -12 7 -27 -3 -25 -3 -25 6 4 7 20 20 35 38 41 29 11 52 14 52 8z
m-202 -47 c4 -19 -68 -69 -100 -69 -17 0 -20 -3 -9 -9 11 -7 10 -12 -8 -22
-11 -8 -21 -19 -21 -25 0 -16 -29 -38 -38 -29 -4 4 -2 10 5 12 7 2 10 10 7 18
-5 13 5 28 56 87 14 15 31 35 38 44 17 19 66 15 70 -7z m1752 -157 c141 -98
204 -166 274 -294 33 -59 86 -202 86 -229 0 -7 -44 31 -98 83 -54 52 -137 121
-184 152 -78 53 -86 61 -92 97 -9 57 -41 137 -81 203 -19 32 -35 60 -35 62 0
8 66 -29 130 -74z m-1751 47 c23 -7 41 -15 41 -19 0 -4 -14 -14 -31 -23 -30
-14 -31 -15 -10 -22 16 -5 19 -10 12 -19 -6 -7 -8 -16 -5 -19 4 -4 -6 -21 -22
-39 -16 -19 -45 -57 -64 -86 -36 -52 -58 -63 -79 -38 -10 11 4 28 71 87 101
88 96 83 81 78 -7 -2 -48 -36 -91 -76 -61 -56 -82 -69 -91 -60 -9 9 -11 8 -6
-5 5 -13 -12 -38 -62 -92 -38 -40 -84 -94 -103 -119 -19 -26 -38 -47 -41 -47
-11 0 -21 32 -24 72 -2 31 4 42 39 76 65 63 168 142 178 136 4 -3 8 0 8 5 0 6
25 27 55 47 30 20 55 39 55 41 0 5 -14 -3 -67 -39 l-43 -29 0 30 c0 21 6 32
21 36 16 5 18 9 9 15 -20 12 14 60 43 60 16 0 18 3 8 9 -18 11 -5 31 20 31 11
0 22 7 26 16 3 8 11 13 18 10 7 -2 31 -10 54 -17z m-249 -59 c0 -5 -4 -10 -10
-10 -5 0 -10 5 -10 10 0 6 5 10 10 10 6 0 10 -4 10 -10z m63 -34 c-12 -27 -30
-41 -76 -61 -33 -14 -57 -28 -54 -31 3 -3 28 6 56 20 l51 26 0 -28 c0 -22 -10
-36 -45 -61 -46 -33 -46 -33 -40 -8 4 14 2 28 -4 31 -14 9 -40 -32 -34 -54 6
-23 -49 -86 -66 -75 -9 5 -5 15 14 36 25 25 26 27 6 22 -24 -6 -25 -4 -12 30
5 13 23 30 39 36 19 8 29 18 26 26 -3 7 8 32 25 56 25 34 38 42 63 43 17 1 33
7 36 14 2 6 10 12 18 12 11 0 11 -6 -3 -34z m2870 -83 c-7 -2 -19 -2 -25 0 -7
3 -2 5 12 5 14 0 19 -2 13 -5z m-1389 -238 c9 -14 13 -25 9 -25 -12 1 -46 50
-35 50 6 0 17 -11 26 -25z m46 -56 c0 -6 -4 -7 -10 -4 -5 3 -10 11 -10 16 0 6
5 7 10 4 6 -3 10 -11 10 -16z m786 -46 c34 -76 76 -194 71 -200 -9 -9 -67 108
-82 166 -8 33 -18 67 -21 76 -3 8 -3 15 0 15 3 0 18 -26 32 -57z m-2536 6 c0
-4 -4 -11 -10 -14 -5 -3 -10 0 -10 9 0 8 -3 23 -6 33 -5 16 -4 16 10 -1 9 -11
16 -23 16 -27z m1764 -9 c-6 -6 -10 -3 -10 10 0 13 4 16 10 10 7 -7 7 -13 0
-20z m-1984 -50 c0 -17 -16 -54 -40 -91 -22 -34 -40 -66 -40 -71 0 -4 -5 -8
-10 -8 -6 0 -2 17 8 38 11 20 22 50 26 66 20 84 56 126 56 66z m2020 10 c0 -5
-2 -10 -4 -10 -3 0 -8 5 -11 10 -3 6 -1 10 4 10 6 0 11 -4 11 -10z m-1980 -95
c0 -18 4 -23 15 -19 18 7 20 -7 3 -24 -17 -17 -36 -15 -41 6 -2 9 -4 6 -3 -8
1 -19 -4 -25 -19 -25 -14 0 -29 -17 -52 -60 -34 -62 -44 -105 -20 -85 6 6 21
18 33 28 11 9 27 35 35 56 17 48 30 54 46 21 10 -22 7 -36 -21 -98 -18 -40
-41 -96 -50 -124 -10 -29 -19 -53 -21 -53 -10 0 -28 46 -41 103 -13 58 -14 59
-9 14 3 -27 14 -70 25 -95 13 -29 19 -56 15 -72 -3 -14 -11 -43 -17 -65 l-10
-40 -24 54 c-18 40 -24 71 -24 126 0 96 10 170 21 153 6 -8 9 -2 9 20 0 55 80
198 105 188 7 -2 16 2 19 10 9 23 26 16 26 -11z m2020 -5 c0 -5 -4 -10 -10
-10 -5 0 -10 5 -10 10 0 6 5 10 10 10 6 0 10 -4 10 -10z m244 -74 c-6 -20 -5
-20 8 -2 14 17 23 10 155 -120 77 -77 159 -165 183 -196 l42 -57 -25 -54 c-15
-33 -40 -66 -62 -83 -75 -57 -114 -99 -120 -129 -4 -24 -4 -26 4 -9 12 28 105
108 109 95 8 -25 -147 -248 -160 -229 -9 13 -17 6 -43 -37 -9 -15 -21 -3 -79
76 -38 51 -69 97 -70 103 -1 6 -5 16 -8 22 -11 16 40 84 62 84 13 0 20 7 20
20 0 27 39 27 82 0 42 -26 78 -26 78 -2 0 25 -30 51 -77 67 -58 19 -73 57 -73
183 l0 103 -47 19 c-63 26 -76 34 -81 48 -6 18 16 14 37 -7 18 -18 19 -17 40
27 12 24 20 46 18 49 -2 2 -10 -10 -17 -27 -15 -37 -42 -37 -46 0 -1 14 -6 44
-9 67 -4 23 -5 49 -1 58 5 14 12 12 46 -15 32 -25 39 -37 34 -54z m491 40 c53
-91 77 -167 84 -268 5 -85 4 -97 -10 -101 -12 -3 -23 -32 -39 -101 -12 -53
-25 -96 -28 -96 -4 0 -23 28 -44 63 -27 46 -34 66 -27 80 8 13 6 17 -7 17 -12
0 -15 6 -10 23 38 131 49 202 50 309 1 65 2 118 3 118 1 0 14 -20 28 -44z
m-728 -18 c-3 -7 -5 -2 -5 12 0 14 2 19 5 13 2 -7 2 -19 0 -25z m-1431 -147
c-1 -60 -4 -104 -8 -98 -13 21 -7 207 7 207 1 0 1 -49 1 -109z m1450 63 c9
-61 -3 -213 -21 -261 -18 -50 -18 -34 0 52 17 80 19 192 5 229 -5 15 -6 26 0
26 5 0 12 -21 16 -46z m-1624 -166 c-21 -21 -32 -3 -15 22 16 22 18 23 21 6 2
-10 -1 -23 -6 -28z m72 16 c26 -10 18 -24 -14 -24 -20 0 -30 5 -30 15 0 16 17
19 44 9z m1506 -198 c0 -8 -4 -18 -10 -21 -5 -3 -10 3 -10 14 0 12 5 21 10 21
6 0 10 -6 10 -14z m720 -77 l32 -60 -21 -52 c-11 -29 -23 -80 -27 -114 -5 -47
-12 -67 -30 -84 -13 -12 -27 -37 -30 -56 -6 -32 -35 -59 -52 -49 -5 3 -17 23
-27 46 -10 22 -24 40 -31 40 -7 0 -33 -23 -57 -51 -25 -28 -47 -46 -51 -41
-12 20 -16 111 -5 118 16 10 147 210 180 277 33 65 43 72 35 25 l-6 -33 15 33
c8 17 20 32 26 32 6 0 9 7 5 15 -3 8 -2 15 3 15 4 0 23 -27 41 -61z m-792 -59
c-7 -11 -17 -20 -22 -20 -5 0 -1 9 9 20 10 11 20 20 22 20 2 0 -2 -9 -9 -20z
m-45 -55 c-3 -9 -8 -14 -10 -11 -3 3 -2 9 2 15 9 16 15 13 8 -4z m-1026 -17
c-3 -8 -6 -5 -6 6 -1 11 2 17 5 13 3 -3 4 -12 1 -19z m1386 -95 c85 -111 95
-133 92 -191 -2 -40 -9 -60 -27 -79 -38 -41 -78 -65 -95 -59 -13 5 -3 22 53
79 l69 72 -75 -71 c-56 -52 -81 -69 -97 -66 -26 4 -58 45 -69 88 -4 16 -14 34
-22 40 -21 15 -8 119 20 159 19 28 84 82 100 84 4 1 27 -25 51 -56z m-453 13
c0 -2 -7 -7 -16 -10 -8 -3 -12 -2 -9 4 6 10 25 14 25 6z m-40 -30 c0 -3 -4 -8
-10 -11 -5 -3 -10 -1 -10 4 0 6 5 11 10 11 6 0 10 -2 10 -4z m-30 -20 c0 -3
-4 -8 -10 -11 -5 -3 -10 -1 -10 4 0 6 5 11 10 11 6 0 10 -2 10 -4z m-80 -46
c0 -5 -5 -10 -11 -10 -5 0 -7 5 -4 10 3 6 8 10 11 10 2 0 4 -4 4 -10z m-35
-20 c-3 -5 -13 -10 -21 -10 -8 0 -14 5 -14 10 0 6 9 10 21 10 11 0 17 -4 14
-10z m1104 -24 c8 -10 8 -27 -1 -67 -10 -48 -16 -109 -19 -191 0 -23 -31 -77
-123 -220 -18 -29 -26 -21 -26 25 0 54 -14 103 -57 205 l-35 82 24 20 c14 12
35 19 54 18 17 -1 43 5 57 15 15 9 31 17 36 17 16 0 50 50 44 66 -5 14 13 44
27 44 4 0 13 -6 19 -14z m-1214 -11 c-16 -7 -36 -10 -45 -7 -10 5 -3 9 20 13
53 10 58 9 25 -6z m-1555 -75 c24 -30 68 -81 97 -112 29 -31 53 -65 53 -75 0
-11 11 -57 24 -103 14 -47 23 -87 20 -89 -3 -3 -27 19 -54 49 -27 30 -49 51
-50 46 0 -4 31 -40 68 -80 61 -64 156 -203 133 -194 -30 11 -216 261 -206 277
3 5 -15 39 -40 74 -48 70 -88 164 -100 237 -8 50 -9 50 55 -30z m1465 60 c-8
-13 -165 -13 -185 0 -10 7 18 10 88 10 66 0 101 -4 97 -10z m-974 -154 c22 -5
27 -13 32 -48 4 -24 9 -59 13 -78 l7 -34 -52 41 c-56 45 -181 160 -181 166 0
3 35 -6 78 -19 42 -12 89 -25 103 -28z m1160 -57 c30 -21 119 -51 152 -51 9 1
17 -4 17 -9 0 -6 -5 -7 -12 -3 -7 5 -9 2 -6 -7 3 -8 9 -21 13 -30 12 -31 -24
-28 -81 6 -31 19 -73 40 -93 46 -36 11 -81 45 -81 61 0 16 63 7 91 -13z
m-1399 -114 c79 -74 262 -216 345 -268 70 -44 85 -90 24 -76 -150 34 -379 155
-396 210 -4 10 -11 16 -17 13 -6 -4 -8 -2 -4 4 3 6 -5 50 -19 97 -14 48 -25
89 -25 91 0 12 20 -4 92 -71z m1719 18 c50 -20 50 -43 2 -75 -77 -51 -77 -51
-98 -10 -11 20 -28 49 -38 64 -10 16 -15 33 -11 39 8 14 91 4 145 -18z m-1615
-268 c78 -45 159 -78 251 -101 65 -16 73 -21 88 -53 41 -87 152 -215 228 -266
43 -28 26 -28 -54 1 -261 94 -504 272 -593 435 -30 53 -30 54 -5 37 13 -10 52
-34 85 -53z m374 -113 c-25 -4 -60 15 -60 34 0 12 8 10 40 -8 31 -18 36 -24
20 -26z m425 8 c3 -5 1 -10 -4 -10 -6 0 -11 5 -11 10 0 6 2 10 4 10 3 0 8 -4
11 -10z m-245 -89 c124 -59 278 -122 357 -145 15 -5 22 -2 25 10 3 14 6 14 28
-6 14 -12 18 -18 10 -14 -8 4 -11 3 -7 -1 4 -5 13 -10 20 -11 7 -2 27 -7 45
-13 17 -5 32 -7 32 -4 0 3 22 -15 50 -41 27 -25 61 -51 75 -58 14 -6 25 -14
25 -18 0 -10 -163 -19 -255 -13 -207 12 -329 50 -430 133 -54 45 -137 146
-173 210 l-23 40 38 0 c25 0 83 -22 183 -69z"/>
<path d="M1998 3673 c6 -2 18 -2 25 0 6 3 1 5 -13 5 -14 0 -19 -2 -12 -5z"/>
<path d="M1958 3663 c7 -3 16 -2 19 1 4 3 -2 6 -13 5 -11 0 -14 -3 -6 -6z"/>
<path d="M1918 3653 c7 -3 16 -2 19 1 4 3 -2 6 -13 5 -11 0 -14 -3 -6 -6z"/>
<path d="M2010 3645 c-16 -19 -6 -31 35 -45 28 -9 38 -9 49 3 19 19 8 33 -36
45 -29 8 -40 7 -48 -3z"/>
<path d="M2058 3553 c18 -2 45 -2 60 0 15 2 0 4 -33 4 -33 0 -45 -2 -27 -4z"/>
<path d="M1118 3353 c12 -2 32 -2 45 0 12 2 2 4 -23 4 -25 0 -35 -2 -22 -4z"/>
<path d="M1102 3309 c-29 -12 -52 -23 -50 -25 4 -3 109 34 117 42 9 9 -16 2
-67 -17z"/>
<path d="M1158 3299 c-21 -11 -38 -22 -38 -24 0 -3 18 4 40 15 22 11 40 23 40
25 0 7 0 7 -42 -16z"/>
<path d="M3311 2334 c0 -11 3 -14 6 -6 3 7 2 16 -1 19 -3 4 -6 -2 -5 -13z"/>
<path d="M3585 3511 c-3 -5 -2 -12 3 -15 5 -3 9 1 9 9 0 17 -3 19 -12 6z"/>
<path d="M2617 3375 c3 -22 7 -42 9 -44 8 -9 2 45 -6 64 -7 14 -8 8 -3 -20z"/>
<path d="M1433 3383 c9 -2 23 -2 30 0 6 3 -1 5 -18 5 -16 0 -22 -2 -12 -5z"/>
<path d="M1373 3343 c9 -2 23 -2 30 0 6 3 -1 5 -18 5 -16 0 -22 -2 -12 -5z"/>
<path d="M1936 3335 c-9 -26 -7 -32 5 -12 6 10 9 21 6 23 -2 3 -7 -2 -11 -11z"/>
<path d="M1330 3336 c0 -3 14 -12 30 -21 17 -9 30 -13 30 -11 0 3 -13 12 -30
21 -16 9 -30 13 -30 11z"/>
<path d="M2375 3330 c11 -5 27 -9 35 -9 9 0 8 4 -5 9 -11 5 -27 9 -35 9 -9 0
-8 -4 5 -9z"/>
<path d="M2438 3313 c7 -3 16 -2 19 1 4 3 -2 6 -13 5 -11 0 -14 -3 -6 -6z"/>
<path d="M2630 3290 c-3 -19 -2 -53 1 -75 6 -38 6 -38 8 -7 0 18 6 32 14 32 9
0 9 2 0 8 -6 4 -13 23 -15 42 l-3 35 -5 -35z"/>
<path d="M1345 3250 c9 -16 18 -30 21 -30 2 0 -2 14 -11 30 -9 17 -18 30 -21
30 -2 0 2 -13 11 -30z"/>
<path d="M1718 3273 c7 -3 16 -2 19 1 4 3 -2 6 -13 5 -11 0 -14 -3 -6 -6z"/>
<path d="M2007 3263 c-14 -4 -16 -8 -6 -19 9 -12 2 -13 -48 -11 -33 2 -65 7
-71 11 -7 4 -12 2 -12 -6 0 -9 -3 -9 -10 2 -5 8 -10 10 -10 4 0 -12 -104 -39
-118 -31 -4 3 -13 -6 -19 -20 -10 -20 -9 -24 1 -20 8 3 19 0 26 -6 10 -10 10
-7 0 13 -9 19 -9 22 0 14 12 -12 53 -7 46 5 -2 3 20 6 50 6 30 0 54 3 54 7 0
4 6 5 14 2 8 -3 37 -6 64 -8 41 -1 52 2 55 15 3 10 12 16 23 15 29 -5 37 4 17
20 -19 14 -26 15 -56 7z"/>
<path d="M2690 3225 c14 -8 30 -14 35 -14 6 0 -1 6 -15 14 -14 8 -29 14 -35
14 -5 0 1 -6 15 -14z"/>
<path d="M1216 3215 c-9 -26 -7 -32 5 -12 6 10 9 21 6 23 -2 3 -7 -2 -11 -11z"/>
<path d="M1644 3209 c-3 -6 0 -16 7 -21 10 -6 7 -7 -10 -3 -16 5 -21 4 -17 -4
4 -7 -6 -10 -29 -9 -20 1 -41 -4 -47 -10 -8 -8 -6 -10 8 -6 11 3 30 1 43 -4
19 -7 29 -4 45 12 22 22 32 56 17 56 -6 0 -13 -5 -17 -11z"/>
<path d="M1386 3180 c10 -19 17 -45 15 -57 -2 -18 3 -23 19 -23 20 0 20 1 5
31 -13 25 -14 34 -4 47 11 15 11 15 -1 4 -12 -10 -18 -9 -33 10 -18 22 -18 22
-1 -12z"/>
<path d="M1450 3170 c-22 -6 -23 -8 -7 -15 9 -4 23 -3 30 3 6 5 21 12 32 15
16 4 15 5 -5 5 -14 0 -36 -3 -50 -8z"/>
<path d="M1350 3145 c-14 -8 -20 -14 -14 -15 5 0 19 7 30 15 24 18 16 19 -16
0z"/>
<path d="M1175 3099 c-9 -28 -15 -52 -12 -55 2 -3 7 7 11 21 4 17 14 25 29 26
18 1 19 2 4 6 -14 4 -17 11 -13 29 11 43 -2 25 -19 -27z"/>
<path d="M1513 3114 c0 -7 9 -14 19 -14 10 0 18 2 18 5 0 2 -8 9 -18 14 -14 8
-19 6 -19 -5z"/>
<path d="M2611 3084 c0 -11 3 -14 6 -6 3 7 2 16 -1 19 -3 4 -6 -2 -5 -13z"/>
<path d="M1360 3061 c-13 -25 -13 -41 0 -41 6 0 10 7 10 15 0 17 16 20 25 5 7
-11 35 -2 35 12 0 6 -7 7 -15 4 -9 -3 -18 1 -21 9 -8 21 -21 19 -34 -4z"/>
<path d="M1460 3070 c-8 -6 -11 -10 -6 -10 4 0 -2 -9 -15 -19 -25 -20 -23 -36
2 -26 13 5 42 55 36 61 -1 2 -9 -1 -17 -6z"/>
<path d="M1293 2990 c0 -30 2 -43 4 -27 2 15 2 39 0 55 -2 15 -4 2 -4 -28z"/>
<path d="M1136 2974 c-4 -14 -5 -28 -3 -31 3 -2 8 8 11 23 4 14 5 28 3 31 -3
2 -8 -8 -11 -23z"/>
<path d="M1354 2965 c-13 -9 -13 -13 -1 -29 14 -19 15 -19 27 5 7 13 18 27 24
31 6 4 0 6 -13 5 -13 -1 -30 -6 -37 -12z"/>
<path d="M1121 2914 c0 -11 3 -14 6 -6 3 7 2 16 -1 19 -3 4 -6 -2 -5 -13z"/>
<path d="M1111 2874 c0 -11 3 -14 6 -6 3 7 2 16 -1 19 -3 4 -6 -2 -5 -13z"/>
<path d="M1941 2847 c-11 -19 -21 -42 -21 -51 0 -25 33 -19 63 12 l27 28 -24
23 -24 22 -21 -34z"/>
<path d="M1301 2854 c0 -11 3 -14 6 -6 3 7 2 16 -1 19 -3 4 -6 -2 -5 -13z"/>
<path d="M1102 2830 c0 -14 2 -19 5 -12 2 6 2 18 0 25 -3 6 -5 1 -5 -13z"/>
<path d="M1976 2791 c-16 -17 -23 -31 -18 -35 10 -6 58 51 50 59 -3 3 -17 -8
-32 -24z"/>
<path d="M1178 2783 c6 -2 18 -2 25 0 6 3 1 5 -13 5 -14 0 -19 -2 -12 -5z"/>
<path d="M747 2229 c7 -7 15 -10 18 -7 3 3 -2 9 -12 12 -14 6 -15 5 -6 -5z"/>
<path d="M1495 2120 c-3 -5 3 -10 14 -10 11 0 23 5 26 10 3 6 -3 10 -14 10
-11 0 -23 -4 -26 -10z"/>
<path d="M1555 2110 c-3 -5 -2 -10 4 -10 5 0 13 5 16 10 3 6 2 10 -4 10 -5 0
-13 -4 -16 -10z"/>
<path d="M875 2065 c22 -8 54 -13 70 -13 19 0 7 5 -30 13 -75 17 -92 17 -40 0z"/>
<path d="M1328 2063 c7 -3 16 -2 19 1 4 3 -2 6 -13 5 -11 0 -14 -3 -6 -6z"/>
<path d="M3497 1983 c-3 -49 -16 -122 -28 -163 -17 -59 -21 -98 -20 -181 2
-116 -8 -174 -49 -264 -25 -57 -112 -195 -162 -260 -13 -17 -17 -26 -8 -21 13
7 13 6 0 -6 -8 -7 -22 -22 -30 -33 -15 -19 -15 -19 15 -1 46 29 75 58 68 69
-3 6 -1 7 5 3 7 -4 12 -2 12 4 0 6 4 9 9 6 10 -7 64 50 110 118 73 106 114
230 136 416 l14 115 -4 -115 c-7 -191 -46 -332 -128 -458 -47 -72 -131 -159
-196 -203 -22 -14 -38 -29 -35 -32 3 -3 -4 -8 -15 -12 -12 -3 -21 -11 -21 -16
0 -6 -8 -9 -17 -8 -25 3 -73 -11 -73 -22 0 -5 -6 -8 -12 -6 -7 1 -12 -3 -11
-10 2 -8 -4 -10 -14 -6 -13 5 -15 2 -9 -13 6 -15 5 -17 -5 -7 -15 15 -33 18
-25 5 3 -5 -13 -19 -35 -31 -22 -13 -38 -25 -35 -28 3 -3 12 0 21 7 8 7 15 10
15 7 0 -10 83 23 102 40 10 9 18 12 18 8 0 -5 11 5 23 23 13 17 27 29 30 25
12 -12 7 -21 -15 -26 -12 -4 -19 -9 -16 -13 10 -9 129 66 123 77 -4 5 1 6 9 3
22 -8 182 155 228 232 132 225 153 483 62 782 -13 45 -26 82 -28 82 -2 0 -6
-39 -9 -87z m-118 -725 c-5 -18 -16 -39 -26 -48 -15 -14 -15 -13 0 13 10 15
15 27 12 27 -3 0 -1 9 5 20 16 30 20 24 9 -12z m-39 -88 c-14 -26 -30 -34 -30
-16 0 9 5 16 11 16 6 0 9 7 6 14 -4 10 -1 13 8 9 11 -4 12 -10 5 -23z"/>
<path d="M1253 2053 c9 -2 25 -2 35 0 9 3 1 5 -18 5 -19 0 -27 -2 -17 -5z"/>
<path d="M1002 2043 c27 -4 27 -6 31 -86 l3 -82 2 82 2 82 88 4 c69 2 62 3
-33 3 -66 1 -108 -1 -93 -3z"/>
<path d="M328 1856 c-15 -19 -40 -40 -56 -47 -21 -9 -28 -18 -24 -31 2 -11 10
-17 18 -14 7 3 37 -1 66 -9 29 -7 55 -12 56 -10 2 2 1 13 -3 25 -5 16 -10 19
-18 11 -11 -11 -77 -16 -77 -5 0 12 45 43 63 44 18 0 21 21 9 52 -6 15 -11 13
-34 -16z"/>
<path d="M1043 1815 c0 -27 2 -38 4 -22 2 15 2 37 0 50 -2 12 -4 0 -4 -28z"/>
<path d="M1053 1725 c0 -22 2 -30 4 -17 2 12 2 30 0 40 -3 9 -5 -1 -4 -23z"/>
<path d="M273 1704 c-3 -8 0 -27 7 -42 7 -15 14 -35 15 -44 3 -27 7 -27 48 -2
25 16 37 32 37 47 0 18 -2 19 -10 7 -8 -12 -15 -9 -43 18 -37 36 -45 39 -54
16z m53 -52 c-9 -9 -37 8 -31 18 5 8 11 7 21 -1 8 -6 12 -14 10 -17z"/>
<path d="M332 1708 c3 -7 12 -14 21 -16 12 -2 15 1 11 12 -7 19 -38 22 -32 4z"/>
<path d="M1576 1668 c5 -23 2 -27 -23 -31 -28 -4 -28 -4 4 -6 27 -1 33 -6 43
-37 7 -19 14 -34 16 -31 2 2 -1 18 -7 36 -9 27 -9 35 2 42 11 7 11 9 -2 9 -9
0 -21 10 -27 23 -11 21 -11 21 -6 -5z"/>
<path d="M1718 1673 c7 -3 16 -2 19 1 4 3 -2 6 -13 5 -11 0 -14 -3 -6 -6z"/>
<path d="M1638 1653 c6 -2 18 -2 25 0 6 3 1 5 -13 5 -14 0 -19 -2 -12 -5z"/>
<path d="M1123 1623 c9 -2 25 -2 35 0 9 3 1 5 -18 5 -19 0 -27 -2 -17 -5z"/>
<path d="M1468 1623 c12 -2 30 -2 40 0 9 3 -1 5 -23 4 -22 0 -30 -2 -17 -4z"/>
<path d="M367 1584 c-4 -4 -7 -22 -7 -41 0 -18 -5 -33 -11 -33 -6 0 -9 14 -7
32 2 18 -2 33 -9 35 -18 6 -16 -32 3 -68 21 -42 48 -35 52 14 3 35 11 45 25
30 4 -3 2 -12 -5 -20 -8 -10 -8 -17 0 -25 19 -19 27 22 11 51 -15 26 -39 38
-52 25z"/>
<path d="M430 1481 c0 -6 -11 -17 -25 -23 -28 -13 -34 -48 -11 -67 8 -7 17
-23 20 -36 7 -28 21 -33 30 -10 3 8 17 20 31 25 28 11 31 22 10 40 -11 10 -18
9 -30 -4 -20 -20 -55 -21 -55 -2 0 7 14 19 30 26 40 17 43 24 20 45 -12 11
-20 13 -20 6z"/>
<path d="M484 1340 c-30 -12 -36 -45 -13 -74 10 -13 19 -29 19 -34 0 -23 20
-21 47 6 15 15 39 35 53 44 24 15 24 17 8 34 -17 17 -18 17 -31 0 -12 -17 -15
-17 -20 -3 -9 23 -39 36 -63 27z m56 -45 c0 -14 -29 -35 -49 -35 -17 0 -13 28
7 39 25 15 42 13 42 -4z"/>
<path d="M620 1258 c0 -20 -41 -57 -73 -66 l-25 -7 19 -24 19 -23 21 26 c24
31 49 34 49 6 0 -14 -10 -25 -29 -33 -29 -12 -29 -12 -10 -35 l19 -24 24 29
c30 33 33 68 9 82 -17 9 -17 10 0 29 16 18 16 20 -3 37 -16 15 -20 15 -20 3z"/>
<path d="M3226 1142 c-3 -5 1 -9 9 -9 8 0 12 4 9 9 -3 4 -7 8 -9 8 -2 0 -6 -4
-9 -8z"/>
<path d="M687 1104 c-11 -12 3 -24 29 -24 13 0 24 -5 24 -11 0 -7 -9 -9 -22
-6 -77 20 -78 20 -78 2 0 -10 18 -35 40 -57 22 -22 40 -35 40 -28 0 6 9 23 20
37 26 33 25 39 -5 68 -25 25 -37 30 -48 19z m23 -63 c0 -11 -26 -22 -34 -14
-12 12 -5 23 14 23 11 0 20 -4 20 -9z"/>
<path d="M814 1046 c-8 -21 3 -36 27 -36 25 0 25 26 -1 40 -16 9 -22 8 -26 -4z"/>
<path d="M786 1005 c4 -9 -6 -21 -25 -33 l-32 -19 24 -16 c24 -15 25 -15 50
24 25 37 25 39 7 49 -25 14 -30 13 -24 -5z"/>
<path d="M850 946 c0 -13 -4 -36 -9 -49 -6 -14 -8 -27 -5 -30 3 -3 27 5 54 16
37 16 47 24 39 33 -8 10 -15 8 -31 -8 -24 -24 -38 -15 -14 11 13 14 14 20 4
28 -32 24 -38 24 -38 -1z"/>
<path d="M946 883 c-14 -14 -4 -24 21 -21 16 2 28 -2 31 -11 3 -10 -6 -12 -47
-6 -41 5 -51 4 -51 -8 0 -16 31 -47 47 -47 6 0 16 -7 23 -15 18 -21 23 -19 38
15 20 44 12 72 -24 86 -18 7 -34 10 -38 7z m34 -63 c0 -12 -28 -25 -36 -17 -9
9 6 27 22 27 8 0 14 -5 14 -10z"/>
<path d="M1126 817 c7 -19 -11 -62 -35 -86 l-21 -21 30 -15 c29 -15 30 -15 30
9 0 20 16 36 37 36 3 0 3 -18 0 -39 -4 -34 -2 -40 20 -50 13 -6 28 -11 33 -11
8 0 -4 48 -21 82 -13 26 -12 26 27 34 36 7 36 7 14 19 -19 10 -26 9 -41 -6
-20 -20 -49 -25 -49 -10 0 6 9 17 21 25 21 14 21 14 -9 30 -38 19 -43 20 -36
3z"/>
<path d="M1270 696 c0 -7 -3 -27 -6 -43 -6 -32 -10 -29 95 -71 10 -4 13 -1 9
10 -4 9 0 28 8 43 16 31 11 45 -17 45 -12 0 -19 -7 -19 -18 0 -29 -26 -59 -40
-46 -9 9 -8 20 5 44 14 27 15 34 3 41 -20 13 -38 11 -38 -5z"/>
<path d="M2554 666 c-3 -8 -12 -12 -20 -9 -8 3 -22 2 -31 -2 -10 -5 -23 -9
-30 -10 -6 -2 -19 -8 -30 -13 -17 -10 -17 -11 0 -17 11 -5 17 -18 17 -41 0
-32 1 -33 30 -23 28 10 29 12 15 32 -19 27 -19 57 0 57 18 0 38 -37 31 -56 -6
-15 11 -18 38 -8 14 5 14 8 1 27 -21 30 -19 59 3 55 11 -2 18 -14 20 -36 3
-32 12 -37 43 -24 15 6 14 11 -7 45 -26 39 -69 52 -80 23z"/>
<path d="M1435 659 c-16 -4 -25 -7 -18 -8 9 -1 8 -9 -2 -34 -16 -40 -6 -57 34
-57 23 0 23 1 7 13 -14 10 -15 17 -7 40 6 16 15 25 21 22 12 -7 13 5 2 20 -4
6 -20 8 -37 4z"/>
<path d="M1497 619 c7 -7 10 -24 7 -39 -7 -33 8 -45 64 -54 39 -6 42 -5 42 16
0 13 3 33 6 46 5 18 2 22 -19 22 -19 0 -24 -4 -21 -17 6 -24 -19 -58 -35 -48
-12 7 -10 30 5 69 5 13 -1 16 -27 16 -25 0 -30 -3 -22 -11z"/>
<path d="M2152 623 c-10 -4 -9 -9 4 -24 12 -14 15 -30 11 -64 -5 -45 -4 -46
22 -43 21 2 25 8 23 27 -3 16 1 22 10 19 7 -3 12 -13 12 -22 -2 -13 5 -16 30
-14 17 2 31 7 31 13 0 15 -65 54 -81 48 -9 -3 -14 2 -14 15 0 45 -15 59 -48
45z"/>
<path d="M1877 613 c-4 -3 -2 -12 4 -19 11 -14 8 -65 -5 -95 -12 -26 92 -21
109 6 19 30 2 64 -35 71 -21 5 -30 12 -30 25 0 19 -29 27 -43 12z m73 -83 c0
-20 -5 -30 -15 -30 -10 0 -15 10 -15 30 0 20 5 30 15 30 10 0 15 -10 15 -30z"/>
<path d="M2328 609 c-10 -5 -18 -14 -18 -19 0 -16 22 -11 36 7 7 10 16 14 21
10 4 -5 -7 -21 -25 -35 -42 -35 -41 -52 3 -52 19 0 35 5 35 11 0 5 -4 8 -9 4
-16 -9 -22 12 -7 24 11 9 15 7 19 -9 5 -21 41 -28 52 -10 3 6 2 10 -3 10 -6 0
-13 12 -17 27 -10 42 -47 56 -87 32z"/>
<path d="M1656 576 c4 -18 1 -33 -10 -45 -16 -17 -15 -19 6 -25 41 -10 45 -7
44 31 -1 28 3 38 17 41 13 3 17 -3 17 -25 0 -16 -5 -34 -11 -40 -8 -8 1 -13
37 -18 27 -3 57 -8 67 -10 15 -3 17 2 13 37 -6 50 -16 61 -58 63 -18 1 -55 5
-81 10 l-48 7 7 -26z m142 -38 c-4 -39 -25 -48 -34 -14 -7 29 1 46 22 46 11 0
14 -9 12 -32z"/>
<path d="M2231 591 c-9 -6 -10 -11 -2 -15 6 -4 21 0 33 8 21 15 21 16 3 16
-11 0 -26 -4 -34 -9z"/>
<path d="M2030 570 c-11 -7 -12 -12 -4 -20 8 -8 14 -7 24 5 14 17 30 20 30 5
0 -6 -16 -18 -35 -27 -19 -9 -35 -23 -35 -30 0 -16 44 -28 62 -17 7 5 26 7 43
5 24 -2 28 0 18 10 -7 7 -13 22 -13 34 0 12 -5 26 -12 33 -14 14 -57 16 -78 2z
m55 -61 c-4 -5 -13 -9 -22 -9 -13 0 -13 3 -3 15 13 15 35 11 25 -6z"/>
</g>
</svg>
